#!OML:ASF I:\Actors\actors\Patient Classification 2\Patient 1\Session 1\actor1.ASF
:FULLY-SPECIFIED
:DEGREES
376
root -0.401586 18.8434 5.29727 5.45277 1.92398 -0.283409
lowerback 13.0142 -0.947727 1.40638
upperback 0.733534 -0.941993 1.55381
thorax -6.52809 -0.477609 1.01882
lowerneck -20.5901 -1.59465 -2.73798
upperneck 3.57461 -1.79171 3.90082
head 4.38586 -0.663881 1.4957
rclavicle 4.47266e-015 1.11319e-014
rhumerus 20.5342 23.9315 -67.5425
rradius 49.8213
rwrist 3.25028
rhand -9.1435 -30.5635
rfingers 7.12502
rthumb 16.8083 -59.856
lclavicle 4.47266e-015 1.11319e-014
lhumerus 15.2077 -20.5246 77.7531
lradius 61.2807
lwrist 25.267
lhand -0.839818 -18.9485
lfingers 7.12502
lthumb 24.7857 9.46539
rfemur 1.61693 2.08673 13.3497
rtibia 9.54166e-015
rfoot -17.9403 -14.4919
rtoes 0.362773
lfemur -12.3283 -3.17568 -14.1813
ltibia 22.3806
lfoot -17.4562 9.17556
ltoes -55.4808
377
root -0.374758 18.8358 5.27644 5.07315 2.12798 -0.966513
lowerback 13.3877 -1.1298 2.57582
upperback 0.770197 -0.990921 1.64074
thorax -6.71721 -0.534977 0.46734
lowerneck -20.4555 -1.54202 -2.64135
upperneck 3.92255 -1.75518 3.86271
head 4.47271 -0.646237 1.47191
rclavicle 9.93923e-017 1.31198e-014
rhumerus 19.0848 24.4472 -67.9977
rradius 50.0834
rwrist 3.88773
rhand -8.08521 -30.6894
rfingers 7.12502
rthumb 17.8269 -59.8923
lclavicle 9.93923e-017 1.31198e-014
lhumerus 13.5473 -21.1825 78.1117
lradius 61.5224
lwrist 24.9765
lhand -0.458853 -18.8293
lfingers 7.12502
lthumb 25.1508 9.53388
rfemur 1.99576 1.93182 14.0535
rtibia -1.59028e-015
rfoot -17.9141 -14.4818
rtoes -0.310451
lfemur -11.9866 -3.15695 -13.5069
ltibia 22.3752
lfoot -17.4134 8.96
ltoes -55.5365
378
root -0.400147 18.8369 5.275 5.20413 1.92672 -0.257676
lowerback 13.0654 -0.969854 1.43721
upperback 0.738256 -0.96764 1.52315
thorax -6.55258 -0.491464 0.974742
lowerneck -20.2335 -1.47951 -2.46683
upperneck 4.20536 -1.71468 3.72414
head 4.52387 -0.63322 1.40452
rclavicle 1.0138e-014 -1.23246e-014
rhumerus 17.6213 25.083 -68.3696
rradius 50.3898
rwrist 4.035
rhand -7.83302 -30.7068
rfingers 7.12502
rthumb 18.0695 -59.8875
lclavicle 1.0138e-014 -1.23246e-014
lhumerus 11.9445 -21.8304 78.4917
lradius 61.6358
lwrist 24.6685
lhand -0.0174914 -18.741
lfingers 7.12502
lthumb 25.5736 9.5622
rfemur 1.83234 2.00176 13.307
rtibia -7.95139e-015
rfoot -18.0103 -14.3016
rtoes 0.418099
lfemur -12.0912 -3.20139 -14.2222
ltibia 22.316
lfoot -17.4253 9.12399
ltoes -55.5637
379
root -0.406791 18.8374 5.26507 5.25685 1.86806 0.0224856
lowerback 12.897 -0.925493 1.02872
upperback 0.718158 -0.976123 1.47024
thorax -6.47352 -0.484628 1.14786
lowerneck -20.0257 -1.44606 -2.35221
upperneck 4.4879 -1.70307 3.65075
head 4.57926 -0.630729 1.36448
rclavicle 4.37326e-015 5.56597e-015
rhumerus 16.1743 25.8015 -68.6971
rradius 50.7257
rwrist 4.04018
rhand -7.99394 -30.7877
rfingers 7.12502
rthumb 17.9147 -59.9826
lclavicle 4.37326e-015 5.56597e-015
lhumerus 10.3584 -22.419 78.9411
lradius 61.6946
lwrist 24.3611
lhand 0.180159 -18.7807
lfingers 7.12502
lthumb 25.7629 9.49516
rfemur 1.73514 1.97412 12.9938
rtibia 1.59028e-015
rfoot -18.011 -14.2102
rtoes 0.525407
lfemur -12.1597 -3.19722 -14.5141
ltibia 22.2732
lfoot -17.3916 9.1701
ltoes -55.6262
380
root -0.402987 18.8361 5.25133 5.24698 1.90138 0.100612
lowerback 12.8315 -0.93888 1.016
upperback 0.709541 -0.998732 1.44391
thorax -6.44598 -0.495768 1.13013
lowerneck -19.9282 -1.42016 -2.38625
upperneck 4.8617 -1.6758 3.68722
head 4.6821 -0.614214 1.38425
rclavicle -1.81888e-014 6.75868e-015
rhumerus 14.7594 26.4788 -69.0617
rradius 51.022
rwrist 4.05316
rhand -8.09101 -30.9339
rfingers 7.12502
rthumb 17.8213 -60.1373
lclavicle -1.81888e-014 6.75868e-015
lhumerus 8.81655 -23.0411 79.3784
lradius 61.7208
lwrist 24.1424
lhand 0.249331 -18.8856
lfingers 7.12502
lthumb 25.8292 9.38064
rfemur 1.7145 1.87996 12.885
rtibia 7.95139e-016
rfoot -17.9569 -14.166
rtoes 0.16698
lfemur -12.1616 -3.20858 -14.6119
ltibia 22.213
lfoot -17.3708 9.13503
ltoes -55.5892
381
root -0.393604 18.8319 5.23564 5.11215 2.033 -0.0723822
lowerback 12.933 -1.00755 1.41061
upperback 0.724963 -1.03068 1.43493
thorax -6.49343 -0.522839 0.905623
lowerneck -19.8811 -1.39993 -2.45898
upperneck 5.28751 -1.65727 3.81866
head 4.81086 -0.595252 1.43951
rclavicle -3.67752e-015 -3.57812e-015
rhumerus 13.3856 27.047 -69.5057
rradius 51.2522
rwrist 4.08041
rhand -7.90461 -30.976
rfingers 7.12502
rthumb 18.0006 -60.163
lclavicle -3.67752e-015 -3.57812e-015
lhumerus 7.39204 -23.7122 79.7587
lradius 61.6654
lwrist 23.9507
lhand 0.331457 -18.9181
lfingers 7.12502
lthumb 25.9078 9.33665
rfemur 1.85145 1.72625 13.0542
rtibia -7.95139e-015
rfoot -17.9807 -14.0587
rtoes 0.387611
lfemur -12.1352 -3.19377 -14.4446
ltibia 22.341
lfoot -17.4021 8.92593
ltoes -55.4492
382
root -0.377869 18.8268 5.21409 4.87873 2.20022 -0.559606
lowerback 13.2233 -1.11796 2.22385
upperback 0.743909 -1.04531 1.47578
thorax -6.65018 -0.5534 0.498592
lowerneck -19.7099 -1.39296 -2.42911
upperneck 5.56456 -1.67255 3.87452
head 4.87309 -0.597995 1.45134
rclavicle -2.98177e-015 5.96354e-015
rhumerus 12.0134 27.5805 -69.9233
rradius 51.5211
rwrist 4.2508
rhand -7.31786 -31.034
rfingers 7.12502
rthumb 18.5651 -60.1681
lclavicle -2.98177e-015 5.96354e-015
lhumerus 5.95523 -24.3959 80.1464
lradius 61.6963
lwrist 23.7409
lhand 0.460513 -18.7554
lfingers 7.12502
lthumb 26.0314 9.48125
rfemur 2.06226 1.57457 13.5632
rtibia 5.56597e-015
rfoot -18.0182 -13.9726
rtoes 0.705867
lfemur -12.081 -3.11783 -13.9455
ltibia 22.5707
lfoot -17.4417 8.65099
ltoes -55.4584
